<svg width="24" height="24" viewBox="0 0 24 24" fill="none" xmlns="http://www.w3.org/2000/svg">
<path d="M16.5 14.7C16.5 14.2029 16.9029 13.8 17.4 13.8C17.8971 13.8 18.3 14.2029 18.3 14.7V16.5H20.1C20.5971 16.5 21 16.9029 21 17.4C21 17.8971 20.5971 18.3 20.1 18.3H18.3V20.1C18.3 20.5971 17.8971 21 17.4 21C16.9029 21 16.5 20.5971 16.5 20.1V18.3H14.7C14.2029 18.3 13.8 17.8971 13.8 17.4C13.8 16.9029 14.2029 16.5 14.7 16.5H16.5V14.7ZM11.7139 15.1225C11.3528 15.4034 10.8472 15.4034 10.4861 15.1225L4.01488 10.0894C3.50014 9.689 3.50014 8.91101 4.01488 8.51065L10.4861 3.47751C10.8472 3.19665 11.3528 3.19665 11.7139 3.47751L18.1851 8.51065C18.6999 8.911 18.6999 9.68899 18.1851 10.0894L11.7139 15.1225ZM10.8508 17.6925C10.9972 17.8062 11.2022 17.8053 11.3475 17.6904L11.8234 17.3145C11.8949 17.258 12 17.3089 12 17.4C12 17.7785 12.0379 18.1475 12.1118 18.4996C12.2012 18.9252 12.0837 19.3833 11.7429 19.6534L11.7153 19.6753C11.3541 19.9616 10.844 19.9639 10.4802 19.681L3.90875 14.5698C3.44783 14.2113 3.44783 13.5147 3.90874 13.1562C4.23187 12.9049 4.68428 12.9047 5.00762 13.1557L10.8508 17.6925Z" fill="#18181B"/>
</svg>
