<svg width="12" height="12" viewBox="0 0 12 12" fill="none" xmlns="http://www.w3.org/2000/svg">
<g clip-path="url(#clip0_771_1573)">
<path d="M11.3333 7.33333C11.7015 7.33333 12 7.63181 12 8V10.6667C12 11.0203 11.8595 11.3594 11.6095 11.6095C11.3594 11.8595 11.0203 12 10.6667 12H1.33333C0.979711 12 0.640573 11.8595 0.390524 11.6095C0.140476 11.3594 0 11.0203 0 10.6667V1.33333C0 0.979711 0.140476 0.640573 0.390524 0.390524C0.640573 0.140476 0.979711 0 1.33333 0H4C4.36819 0 4.66667 0.298477 4.66667 0.666667C4.66667 1.03486 4.36819 1.33333 4 1.33333H2.33333C1.78105 1.33333 1.33333 1.78105 1.33333 2.33333V9.66667C1.33333 10.219 1.78105 10.6667 2.33333 10.6667H9.66667C10.219 10.6667 10.6667 10.219 10.6667 9.66667V8C10.6667 7.63181 10.9651 7.33333 11.3333 7.33333Z" fill="#71717A"/>
<path d="M12 3.5C12 3.1134 11.6866 2.8 11.3 2.8H9.2V0.699999C9.2 0.3134 8.8866 0 8.5 0C8.1134 0 7.8 0.313401 7.8 0.7V2.8H5.7C5.3134 2.8 5 3.1134 5 3.5C5 3.8866 5.3134 4.2 5.7 4.2H7.8V6.3C7.8 6.6866 8.1134 7 8.5 7C8.8866 7 9.2 6.6866 9.2 6.3V4.2H11.3C11.6866 4.2 12 3.8866 12 3.5Z" fill="#71717A"/>
</g>
<defs>
<clipPath id="clip0_771_1573">
<rect width="12" height="12" fill="white"/>
</clipPath>
</defs>
</svg>
