<svg width="16" height="24" viewBox="0 0 16 24" fill="none" xmlns="http://www.w3.org/2000/svg">
<path d="M2.66667 12.7778H6.66667C6.84348 12.7778 7.01305 12.6958 7.13807 12.55C7.2631 12.4041 7.33333 12.2063 7.33333 12V5.77778C7.33333 5.5715 7.2631 5.37367 7.13807 5.22781C7.01305 5.08194 6.84348 5 6.66667 5H2.66667C2.48986 5 2.32029 5.08194 2.19526 5.22781C2.07024 5.37367 2 5.5715 2 5.77778V12C2 12.2063 2.07024 12.4041 2.19526 12.55C2.32029 12.6958 2.48986 12.7778 2.66667 12.7778ZM2 18.2222C2 18.4285 2.07024 18.6263 2.19526 18.7722C2.32029 18.9181 2.48986 19 2.66667 19H6.66667C6.84348 19 7.01305 18.9181 7.13807 18.7722C7.2631 18.6263 7.33333 18.4285 7.33333 18.2222V15.1111C7.33333 14.9048 7.2631 14.707 7.13807 14.5611C7.01305 14.4153 6.84348 14.3333 6.66667 14.3333H2.66667C2.48986 14.3333 2.32029 14.4153 2.19526 14.5611C2.07024 14.707 2 14.9048 2 15.1111V18.2222ZM8.66667 18.2222C8.66667 18.4285 8.73691 18.6263 8.86193 18.7722C8.98695 18.9181 9.15652 19 9.33333 19H13.3333C13.5101 19 13.6797 18.9181 13.8047 18.7722C13.9298 18.6263 14 18.4285 14 18.2222V12.7778C14 12.5715 13.9298 12.3737 13.8047 12.2278C13.6797 12.0819 13.5101 12 13.3333 12H9.33333C9.15652 12 8.98695 12.0819 8.86193 12.2278C8.73691 12.3737 8.66667 12.5715 8.66667 12.7778V18.2222ZM9.33333 10.4444H13.3333C13.5101 10.4444 13.6797 10.3625 13.8047 10.2166C13.9298 10.0708 14 9.87295 14 9.66667V5.77778C14 5.5715 13.9298 5.37367 13.8047 5.22781C13.6797 5.08194 13.5101 5 13.3333 5H9.33333C9.15652 5 8.98695 5.08194 8.86193 5.22781C8.73691 5.37367 8.66667 5.5715 8.66667 5.77778V9.66667C8.66667 9.87295 8.73691 10.0708 8.86193 10.2166C8.98695 10.3625 9.15652 10.4444 9.33333 10.4444Z" fill="#252C32"/>
</svg>
