<svg width="11" height="12" viewBox="0 0 11 12" fill="none" xmlns="http://www.w3.org/2000/svg">
<path d="M2.3335 12C1.96683 12 1.65305 11.8696 1.39216 11.6087C1.13127 11.3478 1.00061 11.0338 1.00016 10.6667V2.33333C1.00016 2.14924 0.850924 2 0.666829 2C0.482735 2 0.333496 1.85076 0.333496 1.66667V1.33333C0.333496 0.965143 0.631973 0.666667 1.00016 0.666667H3.3335C3.51759 0.666667 3.66683 0.517428 3.66683 0.333333C3.66683 0.149238 3.81607 0 4.00016 0H7.3335C7.51759 0 7.66683 0.149238 7.66683 0.333333C7.66683 0.517428 7.81607 0.666667 8.00016 0.666667H10.3335C10.7017 0.666667 11.0002 0.965143 11.0002 1.33333V1.66667C11.0002 1.85076 10.8509 2 10.6668 2C10.4827 2 10.3335 2.14924 10.3335 2.33333V10.6667C10.3335 11.0333 10.2031 11.3473 9.94216 11.6087C9.68127 11.87 9.36727 12.0004 9.00016 12H2.3335ZM9.00016 3C9.00016 2.44772 8.55245 2 8.00016 2H3.33349C2.78121 2 2.3335 2.44772 2.3335 3V9.66666C2.3335 10.2189 2.78121 10.6667 3.3335 10.6667H8.00016C8.55245 10.6667 9.00016 10.2189 9.00016 9.66667V3ZM3.66683 8.66667C3.66683 9.03485 3.96531 9.33333 4.3335 9.33333C4.70169 9.33333 5.00016 9.03485 5.00016 8.66667V4C5.00016 3.63181 4.70169 3.33333 4.3335 3.33333C3.96531 3.33333 3.66683 3.63181 3.66683 4V8.66667ZM6.3335 8.66667C6.3335 9.03485 6.63197 9.33333 7.00016 9.33333C7.36835 9.33333 7.66683 9.03485 7.66683 8.66667V4C7.66683 3.63181 7.36835 3.33333 7.00016 3.33333C6.63197 3.33333 6.3335 3.63181 6.3335 4V8.66667Z" fill="#EA1B4050"/>
</svg>
