<svg width="24" height="24" viewBox="0 0 24 24" fill="none" xmlns="http://www.w3.org/2000/svg">
<path d="M12 16L7.69481 11.6948C7.30912 11.3091 7.30886 10.6801 7.68772 10.2877C8.0761 9.88547 8.72424 9.87424 9.11962 10.2696L11 12.15V5C11 4.44772 11.4477 4 12 4C12.5523 4 13 4.44772 13 5V12.15L14.8804 10.2696C15.2758 9.87424 15.9239 9.88547 16.3123 10.2877C16.6911 10.6801 16.6909 11.3091 16.3052 11.6948L12 16ZM6 20C5.45 20 4.97917 19.8042 4.5875 19.4125C4.19583 19.0208 4 18.55 4 18V16C4 15.4477 4.44772 15 5 15C5.55228 15 6 15.4477 6 16V18H18V16C18 15.4477 18.4477 15 19 15C19.5523 15 20 15.4477 20 16V18C20 18.55 19.8042 19.0208 19.4125 19.4125C19.0208 19.8042 18.55 20 18 20H6Z" fill="#979797"/>
</svg>
