<svg width="15" height="14" viewBox="0 0 15 14" fill="none" xmlns="http://www.w3.org/2000/svg">
<path d="M3.78414 3.82349H3.07826C2.70384 3.82349 2.34475 3.97222 2.08 4.23698C1.81524 4.50174 1.6665 4.86082 1.6665 5.23524V11.5881C1.6665 11.9626 1.81524 12.3216 2.08 12.5864C2.34475 12.8512 2.70384 12.9999 3.07826 12.9999H9.43116C9.80558 12.9999 10.1647 12.8512 10.4294 12.5864C10.6942 12.3216 10.8429 11.9626 10.8429 11.5881V10.8823" stroke="#71717A" stroke-width="1.5" stroke-linecap="round" stroke-linejoin="round"/>
<path d="M10.1369 2.41183L12.2546 4.52947M13.2322 3.53065C13.5102 3.25264 13.6664 2.87558 13.6664 2.48242C13.6664 2.08926 13.5102 1.7122 13.2322 1.43419C12.9542 1.15618 12.5772 1 12.184 1C11.7908 1 11.4138 1.15618 11.1358 1.43419L5.1958 7.35298V9.47061H7.31343L13.2322 3.53065Z" stroke="#71717A" stroke-width="1.5" stroke-linecap="round" stroke-linejoin="round"/>
</svg>
