<svg width="18" height="18" viewBox="0 0 18 18" fill="none" xmlns="http://www.w3.org/2000/svg">
<path fill-rule="evenodd" clip-rule="evenodd" d="M3.60039 2.39844C3.28213 2.39844 2.97691 2.52487 2.75186 2.74991C2.52682 2.97495 2.40039 3.28018 2.40039 3.59844V14.3984C2.40039 14.7167 2.52682 15.0219 2.75186 15.247C2.97691 15.472 3.28213 15.5984 3.60039 15.5984H14.4004C14.7186 15.5984 15.0239 15.472 15.2489 15.247C15.474 15.0219 15.6004 14.7167 15.6004 14.3984V10.1984C15.6004 10.0393 15.5372 9.8867 15.4247 9.77417C15.3121 9.66165 15.1595 9.59844 15.0004 9.59844C14.8413 9.59844 14.6886 9.66165 14.5761 9.77417C14.4636 9.8867 14.4004 10.0393 14.4004 10.1984V14.3984H3.60039V3.59844H7.80039C7.95952 3.59844 8.11213 3.53522 8.22465 3.4227C8.33718 3.31018 8.40039 3.15757 8.40039 2.99844C8.40039 2.83931 8.33718 2.6867 8.22465 2.57417C8.11213 2.46165 7.95952 2.39844 7.80039 2.39844H3.60039ZM15.4252 2.57364C15.5368 2.6855 15.5997 2.83685 15.6004 2.99484V6.59844C15.6004 6.75757 15.5372 6.91018 15.4247 7.0227C15.3121 7.13522 15.1595 7.19844 15.0004 7.19844C14.8413 7.19844 14.6886 7.13522 14.5761 7.0227C14.4636 6.91018 14.4004 6.75757 14.4004 6.59844V4.44684L8.22519 10.6232C8.1694 10.679 8.10318 10.7233 8.03029 10.7535C7.9574 10.7837 7.87928 10.7992 7.80039 10.7992C7.7215 10.7992 7.64338 10.7837 7.57049 10.7535C7.4976 10.7233 7.43138 10.679 7.37559 10.6232C7.3198 10.5675 7.27555 10.5012 7.24536 10.4283C7.21517 10.3555 7.19963 10.2773 7.19963 10.1984C7.19963 10.1195 7.21517 10.0414 7.24536 9.96854C7.27555 9.89565 7.3198 9.82942 7.37559 9.77364L13.552 3.59844H11.4004C11.2413 3.59844 11.0886 3.53522 10.9761 3.4227C10.8636 3.31018 10.8004 3.15757 10.8004 2.99844C10.8004 2.83931 10.8636 2.6867 10.9761 2.57417C11.0886 2.46165 11.2413 2.39844 11.4004 2.39844H15.0004C15.0792 2.3983 15.1573 2.4137 15.2302 2.44376C15.3031 2.47382 15.3694 2.51796 15.4252 2.57364Z" fill="#EA1B40"/>
</svg>
