<svg width="20" height="20" viewBox="0 0 20 20" fill="none" xmlns="http://www.w3.org/2000/svg">
<path fill-rule="evenodd" clip-rule="evenodd" d="M15.2688 3.6L13.7568 3.6C13.315 3.6 12.9568 3.24183 12.9568 2.8C12.9568 2.35817 13.315 2 13.7568 2L17 2C17.5523 2 18 2.44772 18 3V6.2432C18 6.68503 17.6418 7.0432 17.2 7.0432C16.7582 7.0432 16.4 6.68503 16.4 6.2432V4.7312L12.7327 8.39989C12.42 8.71275 11.9128 8.7128 11.6 8.4C11.2872 8.0872 11.2873 7.58004 11.6001 7.26731L15.2688 3.6ZM3.6 15.2688L7.26731 11.6001C7.58004 11.2873 8.0872 11.2872 8.4 11.6C8.7128 11.9128 8.71275 12.42 8.39989 12.7327L4.7312 16.4H6.2432C6.68503 16.4 7.0432 16.7582 7.0432 17.2C7.0432 17.6418 6.68503 18 6.2432 18H3C2.44772 18 2 17.5523 2 17L2 13.7568C2 13.315 2.35817 12.9568 2.8 12.9568C3.24183 12.9568 3.6 13.315 3.6 13.7568L3.6 15.2688Z" fill="#18181B"/>
</svg>
