<svg width="16" height="16" viewBox="0 0 16 16" fill="none" xmlns="http://www.w3.org/2000/svg">
<path d="M1.77778 16C1.28889 16 0.87037 15.8259 0.522222 15.4778C0.174074 15.1296 0 14.7111 0 14.2222V1.77778C0 1.28889 0.174074 0.87037 0.522222 0.522222C0.87037 0.174074 1.28889 0 1.77778 0H7.11111C7.60203 0 8 0.397969 8 0.888889C8 1.37981 7.60203 1.77778 7.11111 1.77778H1.77778V14.2222H14.2222V8.88889C14.2222 8.39797 14.6202 8 15.1111 8C15.602 8 16 8.39797 16 8.88889V14.2222C16 14.7111 15.8259 15.1296 15.4778 15.4778C15.1296 15.8259 14.7111 16 14.2222 16H1.77778ZM6.57778 10.6667C6.23413 11.0103 5.67698 11.0103 5.33333 10.6667C4.98969 10.323 4.98969 9.76587 5.33333 9.42222L12.9778 1.77778H10.6667C10.1757 1.77778 9.77778 1.37981 9.77778 0.888889C9.77778 0.397969 10.1757 0 10.6667 0H15C15.5523 0 16 0.447715 16 1V5.33333C16 5.82425 15.602 6.22222 15.1111 6.22222C14.6202 6.22222 14.2222 5.82425 14.2222 5.33333V3.02222L6.57778 10.6667Z" fill="#EA1B40"/>
</svg>
