<svg width="12" height="12" viewBox="0 0 12 12" fill="none" xmlns="http://www.w3.org/2000/svg">
<path d="M5.33333 2C5.51014 2 5.67971 2.07024 5.80474 2.19526C5.92976 2.32029 6 2.48986 6 2.66667C6 2.84348 5.92976 3.01305 5.80474 3.13807C5.67971 3.2631 5.51014 3.33333 5.33333 3.33333H1.33333V10.6667H8.66667V6.66667C8.66667 6.48986 8.7369 6.32029 8.86193 6.19526C8.98695 6.07024 9.15652 6 9.33333 6C9.51014 6 9.67971 6.07024 9.80474 6.19526C9.92976 6.32029 10 6.48986 10 6.66667V10.6667C10 11.0203 9.85952 11.3594 9.60948 11.6095C9.35943 11.8595 9.02029 12 8.66667 12H1.33333C0.979711 12 0.640573 11.8595 0.390524 11.6095C0.140476 11.3594 0 11.0203 0 10.6667V3.33333C0 2.97971 0.140476 2.64057 0.390524 2.39052C0.640573 2.14048 0.979711 2 1.33333 2H5.33333ZM11.3333 0C11.5101 0 11.6797 0.0702379 11.8047 0.195262C11.9298 0.320286 12 0.489856 12 0.666667V4C12 4.17681 11.9298 4.34638 11.8047 4.4714C11.6797 4.59643 11.5101 4.66667 11.3333 4.66667C11.1565 4.66667 10.987 4.59643 10.8619 4.4714C10.7369 4.34638 10.6667 4.17681 10.6667 4V2.276L5.138 7.80467C5.01227 7.92611 4.84386 7.9933 4.66907 7.99178C4.49427 7.99026 4.32706 7.92015 4.20345 7.79655C4.07985 7.67294 4.00974 7.50573 4.00822 7.33093C4.0067 7.15614 4.07389 6.98774 4.19533 6.862L9.724 1.33333H8C7.82319 1.33333 7.65362 1.2631 7.5286 1.13807C7.40357 1.01305 7.33333 0.843478 7.33333 0.666667C7.33333 0.489856 7.40357 0.320286 7.5286 0.195262C7.65362 0.0702379 7.82319 0 8 0H11.3333Z" fill="#71717A"/>
</svg>
