<svg width="16" height="16" viewBox="0 0 16 16" fill="none" xmlns="http://www.w3.org/2000/svg">
<path d="M6.11466 2.98978C6.49702 2.46272 7.07431 2.12459 7.935 2.12459C8.79569 2.12459 9.37373 2.46197 9.75534 2.98978C10.1542 3.54158 10.3716 4.34904 10.3716 5.31095V6.24811H5.49838V5.31095C5.49838 4.34904 5.7158 3.54158 6.11466 2.98978ZM11.4962 6.24811V5.31095C11.4962 4.20285 11.2488 3.13598 10.6663 2.33077C10.0665 1.50082 9.14431 1 7.935 1C6.72569 1 5.80427 1.50082 5.20373 2.33077C4.6212 3.13598 4.37378 4.20285 4.37378 5.31095V6.24811H3.93894C3.53784 6.24811 3.20421 6.24811 2.93055 6.2706C2.64566 6.29384 2.37875 6.34407 2.12609 6.47303C1.73807 6.67071 1.4226 6.98618 1.22492 7.3742C1.09597 7.62686 1.04498 7.89451 1.02249 8.17941C1 8.45231 1 8.78669 1 9.18705V12.6808C1 13.0819 1 13.4155 1.02249 13.6892C1.04498 13.9741 1.09597 14.2417 1.22492 14.4944C1.4226 14.8824 1.73807 15.1979 2.12609 15.3956C2.37875 15.5245 2.64566 15.5747 2.93055 15.598C3.20421 15.6205 3.53784 15.6205 3.93894 15.6205H11.9311C12.3322 15.6205 12.6658 15.6205 12.9394 15.598C13.2243 15.5747 13.4912 15.5245 13.7439 15.3956C14.1319 15.1979 14.4474 14.8824 14.6451 14.4944C14.774 14.2417 14.825 13.9741 14.8475 13.6892C14.87 13.4163 14.87 13.0819 14.87 12.6815V9.18705C14.87 8.78669 14.87 8.45231 14.8475 8.17941C14.825 7.89451 14.774 7.62686 14.6451 7.3742C14.4478 6.9864 14.1329 6.67096 13.7454 6.47303C13.492 6.34407 13.2251 6.29384 12.9402 6.2706C12.6665 6.24811 12.3329 6.24811 11.9318 6.24811H11.4962Z" fill="white"/>
</svg>
