<svg width="86" height="86" viewBox="0 0 86 86" fill="none" xmlns="http://www.w3.org/2000/svg">
<rect width="86" height="86" rx="43" fill="#EA1B40"/>
<path d="M42.9998 67.727L20.8887 55.5192V30.5119L42.9991 18.2729L65.1108 30.5119V55.5192L42.9998 67.727Z" fill="#EA1B40"/>
<path d="M61.771 52.8952C61.7719 53.3666 61.6483 53.8299 61.4127 54.2383C61.1771 54.6467 60.8379 54.9856 60.4294 55.2209L46.2995 63.3578C46.2421 63.3918 46.1767 63.4099 46.1099 63.4101C46.0432 63.4103 45.9777 63.3926 45.9201 63.359C45.8625 63.3253 45.815 63.2768 45.7825 63.2185C45.75 63.1603 45.7336 63.0944 45.7352 63.0277L45.7576 60.1875C45.7587 60.1216 45.7767 60.0571 45.8098 60.0002C45.843 59.9433 45.8902 59.8958 45.947 59.8624L57.6478 53.1506C57.8784 53.0184 58.0701 52.8278 58.2035 52.598C58.3369 52.3681 58.4073 52.1071 58.4076 51.8413V49.7336C58.4081 49.6044 58.3746 49.4774 58.3105 49.3653C58.2464 49.2531 58.154 49.1597 58.0425 49.0945C57.931 49.0293 57.8043 48.9945 57.6751 48.9937C57.5459 48.9928 57.4188 49.0259 57.3064 49.0896L46.2409 55.3878C46.1834 55.4217 46.1179 55.4395 46.0511 55.4394C45.9844 55.4394 45.9188 55.4214 45.8614 55.3875C45.8039 55.3535 45.7566 55.3048 45.7243 55.2464C45.692 55.188 45.676 55.1219 45.6779 55.0552L45.785 43.7655C45.7853 43.6995 45.8032 43.6347 45.8366 43.5779C45.8701 43.521 45.9181 43.474 45.9756 43.4416L61.1731 34.7616C61.2262 34.7315 61.2862 34.7159 61.3473 34.7163C61.4083 34.7167 61.4681 34.7331 61.5208 34.7639C61.5735 34.7946 61.6172 34.8387 61.6476 34.8916C61.6779 34.9446 61.6939 35.0045 61.6938 35.0656V38.4289C61.6935 38.4906 61.6769 38.5512 61.6456 38.6043C61.6143 38.6575 61.5695 38.7015 61.5156 38.7316L49.5894 45.4098C49.5301 45.4425 49.4808 45.4908 49.4468 45.5494C49.4127 45.608 49.3953 45.6747 49.3963 45.7424L49.4249 49.4434C49.4251 49.4503 49.427 49.4571 49.4306 49.463C49.4342 49.4689 49.4392 49.4738 49.4452 49.4772C49.4513 49.4806 49.4581 49.4824 49.465 49.4824C49.4719 49.4823 49.4787 49.4805 49.4847 49.477L58.9159 44.1205C59.2055 43.9558 59.5332 43.87 59.8664 43.8718C60.1995 43.8735 60.5264 43.9627 60.8142 44.1305C61.102 44.2982 61.3408 44.5387 61.5065 44.8277C61.6722 45.1167 61.7591 45.4441 61.7586 45.7773L61.771 52.8952Z" fill="white"/>
<path d="M54.5435 46.5905C54.5436 46.5837 54.5417 46.5769 54.5382 46.5711C54.5348 46.5652 54.5297 46.5604 54.5237 46.5572C54.5176 46.554 54.5108 46.5525 54.504 46.5528C54.4972 46.5532 54.4906 46.5555 54.4849 46.5594L49.993 49.1753C49.9339 49.2087 49.8671 49.2261 49.7992 49.2258C49.7313 49.2255 49.6647 49.2074 49.606 49.1734C49.5472 49.1395 49.4983 49.0907 49.4642 49.0321C49.43 48.9734 49.4118 48.9069 49.4112 48.839L49.3863 45.7335C49.3853 45.6657 49.4028 45.599 49.4368 45.5404C49.4708 45.4818 49.5201 45.4336 49.5794 45.4009L54.1137 42.8621C54.4389 42.6803 54.4874 42.4062 54.5136 41.9515L54.4924 40.0618C54.4501 38.6916 54.5248 38.5234 53.9755 38.8373L45.9694 43.4339C45.9118 43.4663 45.8639 43.5133 45.8304 43.5702C45.7969 43.627 45.7791 43.6918 45.7788 43.7578L45.6779 55.05C45.676 55.1167 45.692 55.1827 45.7243 55.2412C45.7566 55.2996 45.8039 55.3483 45.8614 55.3823C45.9188 55.4162 45.9844 55.4342 46.0511 55.4342C46.1179 55.4343 46.1834 55.4165 46.2409 55.3826L54.3803 50.7511C54.4382 50.7186 54.4864 50.6712 54.5199 50.6138C54.5534 50.5564 54.571 50.4912 54.5709 50.4248C54.5584 49.6499 54.5398 47.0377 54.5435 46.5905Z" fill="#F5E60C"/>
<path d="M37.4673 36.3897L37.3873 36.4362L33.9368 38.4418V58.9549V59.0568L33.8531 59.0027L30.5762 57.0927C30.5245 57.0632 30.4816 57.0204 30.4518 56.9687C30.4219 56.917 30.4062 56.8583 30.4063 56.7985V36.3897L40.9178 30.2812L43.9411 32.0416C43.9922 32.0716 44.0345 32.1146 44.064 32.1662C44.0934 32.2178 44.1089 32.2763 44.1089 32.3358C44.1089 32.3954 44.0934 32.4538 44.064 32.5055C44.0345 32.5571 43.9922 32.6 43.9411 32.6301L40.9978 34.3338L40.9178 34.3816L37.4673 36.3897Z" fill="white"/>
<path d="M58.121 32.7631L55.2781 34.4219L55.1986 34.467L51.7668 36.4671L51.686 36.5148L48.2542 38.5225L48.1747 38.5689L44.7428 40.569L44.6658 40.6142L41.2352 42.6218V63.1674L41.1544 63.1285L37.9239 61.2464C37.8642 61.2114 37.8147 61.1613 37.7802 61.101C37.7458 61.0406 37.7276 60.9722 37.7276 60.9026V40.5941C37.7274 40.5846 37.7299 40.5752 37.7347 40.567C37.7396 40.5588 37.7465 40.5521 37.7549 40.5477L41.1594 38.5626L41.2389 38.5149L44.6695 36.5148L44.749 36.4684L48.1809 34.4683L48.2604 34.4219L51.6935 32.4142L48.2604 30.4129L48.1821 30.3664L44.7428 28.3726L44.6658 28.3274L41.2352 26.3198L41.1569 26.2746L37.7239 28.2747L37.6443 28.3224L34.2125 30.3225L34.133 30.3677L27.1886 34.4181V54.8935V55.0051L27.1065 54.9399L23.876 53.0577C23.8163 53.0228 23.7668 52.9727 23.7324 52.9123C23.6979 52.852 23.6797 52.7836 23.6797 52.7139V32.408C23.6798 32.3977 23.6825 32.3875 23.6875 32.3786C23.6925 32.3696 23.6996 32.362 23.7083 32.3565L27.1115 30.3727L27.1898 30.3263L30.6216 28.3249L30.7024 28.2785L34.133 26.2784L34.2125 26.232L37.6431 24.2319L41.1557 22.1841L41.2352 22.2305L44.6683 24.2381L44.7453 24.2833L48.1784 26.2909L48.2567 26.3361L51.6897 28.3362L51.7693 28.3839L55.2011 30.384L55.2806 30.4317L58.1235 32.088C58.1807 32.1235 58.2279 32.1732 58.2606 32.2325C58.2932 32.2917 58.3102 32.3584 58.31 32.4262C58.3097 32.494 58.2922 32.5606 58.2591 32.6196C58.226 32.6786 58.1785 32.728 58.121 32.7631Z" fill="white"/>
</svg>
