<svg width="526" height="79" viewBox="0 0 526 79" fill="none" xmlns="http://www.w3.org/2000/svg">
<mask id="path-1-outside-1_7318_4533" maskUnits="userSpaceOnUse" x="95.9766" y="17.9514" width="417" height="43" fill="black">
<rect fill="white" x="95.9766" y="17.9514" width="417" height="43"/>
<path d="M98.082 58.9514V20.4556H105.485L118.541 49.664L131.328 20.4556H138.462V58.9514H131.867V32.1389L121.422 58.9514H115.338L104.677 32.1389V58.9514H98.082ZM148.314 20.4556H171.304V26.1088H154.452L153.806 35.5847C154.829 35.1899 156.318 34.9925 158.274 34.9925C167.966 34.9925 172.811 38.9408 172.811 46.8373C172.811 55.0929 167.786 59.2206 157.736 59.2206C154.147 59.2206 150.557 58.6822 146.968 57.6054V51.683C150.557 52.9393 154.236 53.5674 158.005 53.5674C163.12 53.5674 165.678 51.324 165.678 46.8373C165.678 42.7096 163.21 40.6457 158.274 40.6457C154.236 40.6457 150.468 41.0944 146.968 41.9917L148.314 20.4556ZM210.66 57.3362C207.34 58.5925 203.571 59.2206 199.354 59.2206C185.535 59.2206 178.625 52.5355 178.625 39.1651C178.625 26.5126 185.535 20.1864 199.354 20.1864C203.571 20.1864 207.34 20.8145 210.66 22.0708V28.5316C207.34 27.0959 203.751 26.378 199.892 26.378C190.649 26.378 186.028 30.6404 186.028 39.1651C186.028 48.4077 190.649 53.029 199.892 53.029C203.751 53.029 207.34 52.3111 210.66 50.8754V57.3362ZM238.843 20.4556V52.7598H254.134V58.9514H231.71V20.4556H238.843ZM268.051 39.5958C268.051 48.5513 272.026 53.029 279.976 53.029C287.729 53.029 291.606 48.5513 291.606 39.5958C291.606 30.7839 287.729 26.378 279.976 26.378C272.026 26.378 268.051 30.7839 268.051 39.5958ZM260.648 39.7573C260.648 26.71 267.091 20.1864 279.976 20.1864C292.665 20.1864 299.009 26.71 299.009 39.7573C299.009 52.7329 292.665 59.2206 279.976 59.2206C267.665 59.2206 261.222 52.7329 260.648 39.7573ZM337.558 57.1747C334.453 58.5387 330.567 59.2206 325.901 59.2206C312.315 59.2206 305.523 52.5355 305.523 39.1651C305.523 26.5126 312.432 20.1864 326.251 20.1864C330.469 20.1864 334.237 20.8145 337.558 22.0708V28.5316C334.237 27.0959 330.648 26.378 326.789 26.378C317.547 26.378 312.926 30.6404 312.926 39.1651C312.926 48.4077 317.287 53.029 326.009 53.029C327.301 53.029 328.773 52.8136 330.424 52.3829V41.1841H337.558V57.1747ZM352.524 20.4556V58.9514H345.39V20.4556H352.524ZM361.057 57.3362V50.8754C364.915 52.3111 369.276 53.029 374.14 53.029C380.044 53.029 382.997 51.0548 382.997 47.1065C382.997 44.2351 381.184 42.7993 377.559 42.7993H371.529C363.65 42.7993 359.711 39.21 359.711 32.0312C359.711 24.1347 365.319 20.1864 376.536 20.1864C380.843 20.1864 384.926 20.8145 388.784 22.0708V28.5316C384.926 27.0959 380.843 26.378 376.536 26.378C370.075 26.378 366.845 28.2624 366.845 32.0312C366.845 34.9027 368.406 36.3385 371.529 36.3385H377.559C385.94 36.3385 390.13 39.9278 390.13 47.1065C390.13 55.1826 384.8 59.2206 374.14 59.2206C369.276 59.2206 364.915 58.5925 361.057 57.3362ZM422.461 20.4556V26.6472H411.423V58.9514H404.289V26.6472H393.252V20.4556H422.461ZM434.762 20.4556V58.9514H427.628V20.4556H434.762ZM474.657 57.3362C471.336 58.5925 467.568 59.2206 463.35 59.2206C449.531 59.2206 442.622 52.5355 442.622 39.1651C442.622 26.5126 449.531 20.1864 463.35 20.1864C467.568 20.1864 471.336 20.8145 474.657 22.0708V28.5316C471.336 27.0959 467.747 26.378 463.889 26.378C454.646 26.378 450.025 30.6404 450.025 39.1651C450.025 48.4077 454.646 53.029 463.889 53.029C467.747 53.029 471.336 52.3111 474.657 50.8754V57.3362ZM481.816 57.3362V50.8754C485.675 52.3111 490.036 53.029 494.9 53.029C500.804 53.029 503.756 51.0548 503.756 47.1065C503.756 44.2351 501.944 42.7993 498.318 42.7993H492.288C484.41 42.7993 480.47 39.21 480.47 32.0312C480.47 24.1347 486.079 20.1864 497.295 20.1864C501.603 20.1864 505.686 20.8145 509.544 22.0708V28.5316C505.686 27.0959 501.603 26.378 497.295 26.378C490.835 26.378 487.604 28.2624 487.604 32.0312C487.604 34.9027 489.166 36.3385 492.288 36.3385H498.318C506.7 36.3385 510.89 39.9278 510.89 47.1065C510.89 55.1826 505.56 59.2206 494.9 59.2206C490.036 59.2206 485.675 58.5925 481.816 57.3362Z"/>
</mask>
<path d="M98.082 58.9514V20.4556H105.485L118.541 49.664L131.328 20.4556H138.462V58.9514H131.867V32.1389L121.422 58.9514H115.338L104.677 32.1389V58.9514H98.082ZM148.314 20.4556H171.304V26.1088H154.452L153.806 35.5847C154.829 35.1899 156.318 34.9925 158.274 34.9925C167.966 34.9925 172.811 38.9408 172.811 46.8373C172.811 55.0929 167.786 59.2206 157.736 59.2206C154.147 59.2206 150.557 58.6822 146.968 57.6054V51.683C150.557 52.9393 154.236 53.5674 158.005 53.5674C163.12 53.5674 165.678 51.324 165.678 46.8373C165.678 42.7096 163.21 40.6457 158.274 40.6457C154.236 40.6457 150.468 41.0944 146.968 41.9917L148.314 20.4556ZM210.66 57.3362C207.34 58.5925 203.571 59.2206 199.354 59.2206C185.535 59.2206 178.625 52.5355 178.625 39.1651C178.625 26.5126 185.535 20.1864 199.354 20.1864C203.571 20.1864 207.34 20.8145 210.66 22.0708V28.5316C207.34 27.0959 203.751 26.378 199.892 26.378C190.649 26.378 186.028 30.6404 186.028 39.1651C186.028 48.4077 190.649 53.029 199.892 53.029C203.751 53.029 207.34 52.3111 210.66 50.8754V57.3362ZM238.843 20.4556V52.7598H254.134V58.9514H231.71V20.4556H238.843ZM268.051 39.5958C268.051 48.5513 272.026 53.029 279.976 53.029C287.729 53.029 291.606 48.5513 291.606 39.5958C291.606 30.7839 287.729 26.378 279.976 26.378C272.026 26.378 268.051 30.7839 268.051 39.5958ZM260.648 39.7573C260.648 26.71 267.091 20.1864 279.976 20.1864C292.665 20.1864 299.009 26.71 299.009 39.7573C299.009 52.7329 292.665 59.2206 279.976 59.2206C267.665 59.2206 261.222 52.7329 260.648 39.7573ZM337.558 57.1747C334.453 58.5387 330.567 59.2206 325.901 59.2206C312.315 59.2206 305.523 52.5355 305.523 39.1651C305.523 26.5126 312.432 20.1864 326.251 20.1864C330.469 20.1864 334.237 20.8145 337.558 22.0708V28.5316C334.237 27.0959 330.648 26.378 326.789 26.378C317.547 26.378 312.926 30.6404 312.926 39.1651C312.926 48.4077 317.287 53.029 326.009 53.029C327.301 53.029 328.773 52.8136 330.424 52.3829V41.1841H337.558V57.1747ZM352.524 20.4556V58.9514H345.39V20.4556H352.524ZM361.057 57.3362V50.8754C364.915 52.3111 369.276 53.029 374.14 53.029C380.044 53.029 382.997 51.0548 382.997 47.1065C382.997 44.2351 381.184 42.7993 377.559 42.7993H371.529C363.65 42.7993 359.711 39.21 359.711 32.0312C359.711 24.1347 365.319 20.1864 376.536 20.1864C380.843 20.1864 384.926 20.8145 388.784 22.0708V28.5316C384.926 27.0959 380.843 26.378 376.536 26.378C370.075 26.378 366.845 28.2624 366.845 32.0312C366.845 34.9027 368.406 36.3385 371.529 36.3385H377.559C385.94 36.3385 390.13 39.9278 390.13 47.1065C390.13 55.1826 384.8 59.2206 374.14 59.2206C369.276 59.2206 364.915 58.5925 361.057 57.3362ZM422.461 20.4556V26.6472H411.423V58.9514H404.289V26.6472H393.252V20.4556H422.461ZM434.762 20.4556V58.9514H427.628V20.4556H434.762ZM474.657 57.3362C471.336 58.5925 467.568 59.2206 463.35 59.2206C449.531 59.2206 442.622 52.5355 442.622 39.1651C442.622 26.5126 449.531 20.1864 463.35 20.1864C467.568 20.1864 471.336 20.8145 474.657 22.0708V28.5316C471.336 27.0959 467.747 26.378 463.889 26.378C454.646 26.378 450.025 30.6404 450.025 39.1651C450.025 48.4077 454.646 53.029 463.889 53.029C467.747 53.029 471.336 52.3111 474.657 50.8754V57.3362ZM481.816 57.3362V50.8754C485.675 52.3111 490.036 53.029 494.9 53.029C500.804 53.029 503.756 51.0548 503.756 47.1065C503.756 44.2351 501.944 42.7993 498.318 42.7993H492.288C484.41 42.7993 480.47 39.21 480.47 32.0312C480.47 24.1347 486.079 20.1864 497.295 20.1864C501.603 20.1864 505.686 20.8145 509.544 22.0708V28.5316C505.686 27.0959 501.603 26.378 497.295 26.378C490.835 26.378 487.604 28.2624 487.604 32.0312C487.604 34.9027 489.166 36.3385 492.288 36.3385H498.318C506.7 36.3385 510.89 39.9278 510.89 47.1065C510.89 55.1826 505.56 59.2206 494.9 59.2206C490.036 59.2206 485.675 58.5925 481.816 57.3362Z" fill="#EA1B40"/>
<path d="M98.082 58.9514H96.829V60.2044H98.082V58.9514ZM98.082 20.4556V19.2026H96.829V20.4556H98.082ZM105.485 20.4556L106.629 19.9442L106.297 19.2026H105.485V20.4556ZM118.541 49.664L117.397 50.1753L118.553 52.7611L119.689 50.1665L118.541 49.664ZM131.328 20.4556V19.2026H130.509L130.181 19.9531L131.328 20.4556ZM138.462 20.4556H139.715V19.2026H138.462V20.4556ZM138.462 58.9514V60.2044H139.715V58.9514H138.462ZM131.867 58.9514H130.614V60.2044H131.867V58.9514ZM131.867 32.1389H133.12L130.699 31.6841L131.867 32.1389ZM121.422 58.9514V60.2044H122.278L122.589 59.4063L121.422 58.9514ZM115.338 58.9514L114.174 59.4144L114.488 60.2044H115.338V58.9514ZM104.677 32.1389L105.842 31.676L103.424 32.1389H104.677ZM104.677 58.9514V60.2044H105.931V58.9514H104.677ZM98.082 58.9514H99.3351V20.4556H98.082H96.829V58.9514H98.082ZM98.082 20.4556V21.7086H105.485V20.4556V19.2026H98.082V20.4556ZM105.485 20.4556L104.341 20.9669L117.397 50.1753L118.541 49.664L119.685 49.1526L106.629 19.9442L105.485 20.4556ZM118.541 49.664L119.689 50.1665L132.476 20.9581L131.328 20.4556L130.181 19.9531L117.394 49.1615L118.541 49.664ZM131.328 20.4556V21.7086H138.462V20.4556V19.2026H131.328V20.4556ZM138.462 20.4556H137.209V58.9514H138.462H139.715V20.4556H138.462ZM138.462 58.9514V57.6984H131.867V58.9514V60.2044H138.462V58.9514ZM131.867 58.9514H133.12V32.1389H131.867H130.614V58.9514H131.867ZM131.867 32.1389L130.699 31.6841L120.254 58.4966L121.422 58.9514L122.589 59.4063L133.034 32.5938L131.867 32.1389ZM121.422 58.9514V57.6984H115.338V58.9514V60.2044H121.422V58.9514ZM115.338 58.9514L116.502 58.4885L105.842 31.676L104.677 32.1389L103.513 32.6019L114.174 59.4144L115.338 58.9514ZM104.677 32.1389H103.424V58.9514H104.677H105.931V32.1389H104.677ZM104.677 58.9514V57.6984H98.082V58.9514V60.2044H104.677V58.9514ZM148.314 20.4556V19.2026H147.137L147.063 20.3774L148.314 20.4556ZM171.304 20.4556H172.557V19.2026H171.304V20.4556ZM171.304 26.1088V27.3618H172.557V26.1088H171.304ZM154.452 26.1088V24.8558H153.281L153.202 26.0236L154.452 26.1088ZM153.806 35.5847L152.556 35.4995L152.422 37.462L154.257 36.7537L153.806 35.5847ZM146.968 57.6054H145.715V58.5377L146.608 58.8056L146.968 57.6054ZM146.968 51.683L147.382 50.5003L145.715 49.9169V51.683H146.968ZM146.968 41.9917L145.717 41.9136L145.61 43.6335L147.279 43.2055L146.968 41.9917ZM148.314 20.4556V21.7086H171.304V20.4556V19.2026H148.314V20.4556ZM171.304 20.4556H170.051V26.1088H171.304H172.557V20.4556H171.304ZM171.304 26.1088V24.8558H154.452V26.1088V27.3618H171.304V26.1088ZM154.452 26.1088L153.202 26.0236L152.556 35.4995L153.806 35.5847L155.056 35.6699L155.702 26.194L154.452 26.1088ZM153.806 35.5847L154.257 36.7537C155.065 36.4419 156.371 36.2455 158.274 36.2455V34.9925V33.7395C156.266 33.7395 154.593 33.9378 153.355 34.4157L153.806 35.5847ZM158.274 34.9925V36.2455C162.982 36.2455 166.28 37.2096 168.386 38.9251C170.442 40.6005 171.558 43.1577 171.558 46.8373H172.811H174.064C174.064 42.6204 172.758 39.2552 169.969 36.9823C167.228 34.7495 163.258 33.7395 158.274 33.7395V34.9925ZM172.811 46.8373H171.558C171.558 50.6998 170.395 53.3925 168.247 55.1566C166.053 56.9594 162.621 57.9676 157.736 57.9676V59.2206V60.4736C162.901 60.4736 167.008 59.418 169.838 57.093C172.715 54.7293 174.064 51.2304 174.064 46.8373H172.811ZM157.736 59.2206V57.9676C154.274 57.9676 150.806 57.4486 147.328 56.4052L146.968 57.6054L146.608 58.8056C150.309 59.9159 154.02 60.4736 157.736 60.4736V59.2206ZM146.968 57.6054H148.221V51.683H146.968H145.715V57.6054H146.968ZM146.968 51.683L146.554 52.8656C150.275 54.1681 154.094 54.8204 158.005 54.8204V53.5674V52.3144C154.379 52.3144 150.839 51.7105 147.382 50.5003L146.968 51.683ZM158.005 53.5674V54.8204C160.718 54.8204 162.987 54.229 164.586 52.8268C166.216 51.3972 166.931 49.3196 166.931 46.8373H165.678H164.425C164.425 48.8418 163.861 50.1292 162.933 50.9429C161.974 51.7841 160.407 52.3144 158.005 52.3144V53.5674ZM165.678 46.8373H166.931C166.931 44.5157 166.226 42.5667 164.631 41.2325C163.078 39.9341 160.886 39.3927 158.274 39.3927V40.6457V41.8987C160.598 41.8987 162.108 42.3892 163.023 43.1548C163.895 43.8844 164.425 45.0313 164.425 46.8373H165.678ZM158.274 40.6457V39.3927C154.144 39.3927 150.269 39.8517 146.657 40.778L146.968 41.9917L147.279 43.2055C150.666 42.337 154.329 41.8987 158.274 41.8987V40.6457ZM146.968 41.9917L148.219 42.0699L149.565 20.5337L148.314 20.4556L147.063 20.3774L145.717 41.9136L146.968 41.9917ZM210.66 57.3362L211.104 58.5081L211.913 58.2018V57.3362H210.66ZM210.66 22.0708H211.913V21.2052L211.104 20.8989L210.66 22.0708ZM210.66 28.5316L210.163 29.6817L211.913 30.4386V28.5316H210.66ZM210.66 50.8754H211.913V48.9684L210.163 49.7253L210.66 50.8754ZM210.66 57.3362L210.217 56.1643C207.062 57.3579 203.447 57.9676 199.354 57.9676V59.2206V60.4736C203.695 60.4736 207.618 59.8271 211.104 58.5081L210.66 57.3362ZM199.354 59.2206V57.9676C192.627 57.9676 187.814 56.3401 184.678 53.3062C181.55 50.2798 179.878 45.6464 179.878 39.1651H178.625H177.372C177.372 46.0541 179.154 51.4485 182.936 55.1073C186.71 58.7586 192.261 60.4736 199.354 60.4736V59.2206ZM178.625 39.1651H179.878C179.878 33.0618 181.539 28.7062 184.653 25.8552C187.788 22.985 192.611 21.4394 199.354 21.4394V20.1864V18.9334C192.277 18.9334 186.736 20.5508 182.961 24.0069C179.165 27.4821 177.372 32.6159 177.372 39.1651H178.625ZM199.354 20.1864V21.4394C203.447 21.4394 207.062 22.0491 210.217 23.2427L210.66 22.0708L211.104 20.8989C207.618 19.5799 203.695 18.9334 199.354 18.9334V20.1864ZM210.66 22.0708H209.407V28.5316H210.66H211.913V22.0708H210.66ZM210.66 28.5316L211.157 27.3815C207.67 25.8734 203.91 25.125 199.892 25.125V26.378V27.631C203.591 27.631 207.01 28.3183 210.163 29.6817L210.66 28.5316ZM199.892 26.378V25.125C195.102 25.125 191.275 26.2275 188.645 28.6537C185.995 31.0976 184.775 34.6824 184.775 39.1651H186.028H187.281C187.281 35.1231 188.372 32.3143 190.344 30.4958C192.334 28.6597 195.44 27.631 199.892 27.631V26.378ZM186.028 39.1651H184.775C184.775 43.9795 185.98 47.8205 188.608 50.449C191.237 53.0775 195.078 54.282 199.892 54.282V53.029V51.776C195.464 51.776 192.373 50.6698 190.38 48.677C188.387 46.6842 187.281 43.5933 187.281 39.1651H186.028ZM199.892 53.029V54.282C203.91 54.282 207.67 53.5336 211.157 52.0255L210.66 50.8754L210.163 49.7253C207.01 51.0887 203.591 51.776 199.892 51.776V53.029ZM210.66 50.8754H209.407V57.3362H210.66H211.913V50.8754H210.66ZM238.843 20.4556H240.096V19.2026H238.843V20.4556ZM238.843 52.7598H237.59V54.0128H238.843V52.7598ZM254.134 52.7598H255.387V51.5068H254.134V52.7598ZM254.134 58.9514V60.2044H255.387V58.9514H254.134ZM231.71 58.9514H230.457V60.2044H231.71V58.9514ZM231.71 20.4556V19.2026H230.457V20.4556H231.71ZM238.843 20.4556H237.59V52.7598H238.843H240.096V20.4556H238.843ZM238.843 52.7598V54.0128H254.134V52.7598V51.5068H238.843V52.7598ZM254.134 52.7598H252.881V58.9514H254.134H255.387V52.7598H254.134ZM254.134 58.9514V57.6984H231.71V58.9514V60.2044H254.134V58.9514ZM231.71 58.9514H232.963V20.4556H231.71H230.457V58.9514H231.71ZM231.71 20.4556V21.7086H238.843V20.4556V19.2026H231.71V20.4556ZM260.648 39.7573H259.395V39.7851L259.396 39.8127L260.648 39.7573ZM268.051 39.5958H266.798C266.798 44.2324 267.823 47.9439 270.095 50.5026C272.392 53.0897 275.767 54.282 279.976 54.282V53.029V51.776C276.235 51.776 273.648 50.7294 271.969 48.8388C270.265 46.9198 269.304 43.9147 269.304 39.5958H268.051ZM279.976 53.029V54.282C284.097 54.282 287.401 53.0837 289.646 50.4908C291.861 47.9325 292.859 44.2259 292.859 39.5958H291.606H290.353C290.353 43.9211 289.413 46.9312 287.751 48.8506C286.119 50.7354 283.609 51.776 279.976 51.776V53.029ZM291.606 39.5958H292.859C292.859 35.0334 291.859 31.3775 289.639 28.8548C287.393 26.3014 284.091 25.125 279.976 25.125V26.378V27.631C283.615 27.631 286.128 28.6576 287.758 30.5102C289.415 32.3934 290.353 35.3464 290.353 39.5958H291.606ZM279.976 26.378V25.125C275.773 25.125 272.4 26.2957 270.102 28.8431C267.825 31.366 266.798 35.0268 266.798 39.5958H268.051H269.304C269.304 35.353 270.263 32.4048 271.962 30.5218C273.639 28.6633 276.229 27.631 279.976 27.631V26.378ZM260.648 39.7573H261.901C261.901 33.4229 263.464 28.903 266.371 25.9596C269.275 23.019 273.731 21.4394 279.976 21.4394V20.1864V18.9334C273.336 18.9334 268.127 20.6156 264.588 24.1986C261.052 27.7788 259.395 33.0444 259.395 39.7573H260.648ZM279.976 20.1864V21.4394C286.118 21.4394 290.497 23.0163 293.352 25.9527C296.214 28.8956 297.756 33.4182 297.756 39.7573H299.009H300.262C300.262 33.0492 298.631 27.7863 295.149 24.2055C291.66 20.6183 286.523 18.9334 279.976 18.9334V20.1864ZM299.009 39.7573H297.756C297.756 46.0589 296.215 50.5536 293.355 53.4788C290.5 56.3987 286.12 57.9676 279.976 57.9676V59.2206V60.4736C286.521 60.4736 291.658 58.7987 295.147 55.2309C298.63 51.6682 300.262 46.4313 300.262 39.7573H299.009ZM279.976 59.2206V57.9676C274.035 57.9676 269.713 56.4059 266.8 53.4719C263.875 50.5269 262.179 46.0086 261.899 39.7019L260.648 39.7573L259.396 39.8127C259.691 46.4816 261.503 51.695 265.021 55.2377C268.551 58.7915 273.606 60.4736 279.976 60.4736V59.2206ZM337.558 57.1747L338.061 58.3219L338.811 57.9928V57.1747H337.558ZM337.558 22.0708H338.811V21.2052L338.001 20.8989L337.558 22.0708ZM337.558 28.5316L337.06 29.6817L338.811 30.4386V28.5316H337.558ZM330.424 52.3829L330.74 53.5953L331.677 53.351V52.3829H330.424ZM330.424 41.1841V39.9311H329.171V41.1841H330.424ZM337.558 41.1841H338.811V39.9311H337.558V41.1841ZM337.558 57.1747L337.054 56.0275C334.155 57.3007 330.455 57.9676 325.901 57.9676V59.2206V60.4736C330.68 60.4736 334.75 59.7766 338.061 58.3219L337.558 57.1747ZM325.901 59.2206V57.9676C319.296 57.9676 314.574 56.3428 311.496 53.3137C308.422 50.2882 306.776 45.652 306.776 39.1651H305.523H304.27C304.27 46.0485 306.02 51.4401 309.738 55.0998C313.453 58.7559 318.92 60.4736 325.901 60.4736V59.2206ZM305.523 39.1651H306.776C306.776 33.0618 308.437 28.7062 311.551 25.8552C314.686 22.985 319.509 21.4394 326.251 21.4394V20.1864V18.9334C319.174 18.9334 313.633 20.5508 309.858 24.0069C306.063 27.4821 304.27 32.6159 304.27 39.1651H305.523ZM326.251 20.1864V21.4394C330.345 21.4394 333.96 22.0491 337.114 23.2427L337.558 22.0708L338.001 20.8989C334.515 19.5799 330.592 18.9334 326.251 18.9334V20.1864ZM337.558 22.0708H336.305V28.5316H337.558H338.811V22.0708H337.558ZM337.558 28.5316L338.055 27.3815C334.567 25.8734 330.807 25.125 326.789 25.125V26.378V27.631C330.489 27.631 333.907 28.3183 337.06 29.6817L337.558 28.5316ZM326.789 26.378V25.125C321.999 25.125 318.173 26.2275 315.542 28.6537C312.892 31.0976 311.673 34.6824 311.673 39.1651H312.926H314.179C314.179 35.1231 315.269 32.3143 317.241 30.4958C319.232 28.6597 322.337 27.631 326.789 27.631V26.378ZM312.926 39.1651H311.673C311.673 43.962 312.803 47.7927 315.285 50.423C317.78 53.0669 321.435 54.282 326.009 54.282V53.029V51.776C321.86 51.776 318.974 50.6804 317.108 48.703C315.229 46.712 314.179 43.6108 314.179 39.1651H312.926ZM326.009 53.029V54.282C327.435 54.282 329.016 54.0449 330.74 53.5953L330.424 52.3829L330.107 51.1705C328.529 51.5823 327.166 51.776 326.009 51.776V53.029ZM330.424 52.3829H331.677V41.1841H330.424H329.171V52.3829H330.424ZM330.424 41.1841V42.4371H337.558V41.1841V39.9311H330.424V41.1841ZM337.558 41.1841H336.305V57.1747H337.558H338.811V41.1841H337.558ZM352.524 20.4556H353.777V19.2026H352.524V20.4556ZM352.524 58.9514V60.2044H353.777V58.9514H352.524ZM345.39 58.9514H344.137V60.2044H345.39V58.9514ZM345.39 20.4556V19.2026H344.137V20.4556H345.39ZM352.524 20.4556H351.271V58.9514H352.524H353.777V20.4556H352.524ZM352.524 58.9514V57.6984H345.39V58.9514V60.2044H352.524V58.9514ZM345.39 58.9514H346.643V20.4556H345.39H344.137V58.9514H345.39ZM345.39 20.4556V21.7086H352.524V20.4556V19.2026H345.39V20.4556ZM361.057 57.3362H359.804V58.246L360.669 58.5277L361.057 57.3362ZM361.057 50.8754L361.494 49.701L359.804 49.0722V50.8754H361.057ZM388.784 22.0708H390.037V21.161L389.172 20.8793L388.784 22.0708ZM388.784 28.5316L388.348 29.706L390.037 30.3348V28.5316H388.784ZM361.057 57.3362H362.31V50.8754H361.057H359.804V57.3362H361.057ZM361.057 50.8754L360.62 52.0497C364.641 53.546 369.154 54.282 374.14 54.282V53.029V51.776C369.399 51.776 365.19 51.0763 361.494 49.701L361.057 50.8754ZM374.14 53.029V54.282C377.192 54.282 379.701 53.7789 381.479 52.59C383.346 51.3414 384.25 49.4441 384.25 47.1065H382.997H381.744C381.744 48.7173 381.171 49.7812 380.086 50.5068C378.912 51.292 376.992 51.776 374.14 51.776V53.029ZM382.997 47.1065H384.25C384.25 45.3899 383.693 43.9062 382.415 42.8939C381.193 41.9257 379.503 41.5463 377.559 41.5463V42.7993V44.0523C379.24 44.0523 380.269 44.3908 380.859 44.8583C381.394 45.2818 381.744 45.9517 381.744 47.1065H382.997ZM377.559 42.7993V41.5463H371.529V42.7993V44.0523H377.559V42.7993ZM371.529 42.7993V41.5463C367.755 41.5463 365.159 40.6842 363.509 39.1811C361.881 37.6981 360.964 35.3959 360.964 32.0312H359.711H358.458C358.458 35.8453 359.51 38.9271 361.821 41.0335C364.111 43.1197 367.424 44.0523 371.529 44.0523V42.7993ZM359.711 32.0312H360.964C360.964 28.4196 362.222 25.8735 364.638 24.1722C367.135 22.4142 371.036 21.4394 376.536 21.4394V20.1864V18.9334C370.819 18.9334 366.307 19.9327 363.196 22.123C360.004 24.37 358.458 27.7463 358.458 32.0312H359.711ZM376.536 20.1864V21.4394C380.719 21.4394 384.671 22.0492 388.397 23.2622L388.784 22.0708L389.172 20.8793C385.181 19.5798 380.967 18.9334 376.536 18.9334V20.1864ZM388.784 22.0708H387.531V28.5316H388.784H390.037V22.0708H388.784ZM388.784 28.5316L389.221 27.3573C385.217 25.8671 380.985 25.125 376.536 25.125V26.378V27.631C380.701 27.631 384.635 28.3246 388.348 29.706L388.784 28.5316ZM376.536 26.378V25.125C373.225 25.125 370.536 25.6006 368.636 26.709C366.632 27.8779 365.591 29.7055 365.591 32.0312H366.845H368.098C368.098 30.5882 368.672 29.5891 369.899 28.8736C371.229 28.0976 373.386 27.631 376.536 27.631V26.378ZM366.845 32.0312H365.591C365.591 33.6884 366.047 35.1537 367.167 36.184C368.268 37.1961 369.799 37.5915 371.529 37.5915V36.3385V35.0855C370.136 35.0855 369.324 34.763 368.864 34.3393C368.423 33.9339 368.098 33.2456 368.098 32.0312H366.845ZM371.529 36.3385V37.5915H377.559V36.3385V35.0855H371.529V36.3385ZM377.559 36.3385V37.5915C381.6 37.5915 384.396 38.4609 386.172 39.9821C387.911 41.4716 388.877 43.7654 388.877 47.1065H390.13H391.383C391.383 43.269 390.254 40.1788 387.803 38.0788C385.388 36.0107 381.899 35.0855 377.559 35.0855V36.3385ZM390.13 47.1065H388.877C388.877 50.8435 387.662 53.4613 385.376 55.1933C383.024 56.9751 379.348 57.9676 374.14 57.9676V59.2206V60.4736C379.593 60.4736 383.911 59.4472 386.889 57.1909C389.933 54.8848 391.383 51.4456 391.383 47.1065H390.13ZM374.14 59.2206V57.9676C369.383 57.9676 365.156 57.3531 361.445 56.1448L361.057 57.3362L360.669 58.5277C364.675 59.8319 369.17 60.4736 374.14 60.4736V59.2206ZM422.461 20.4556H423.714V19.2026H422.461V20.4556ZM422.461 26.6472V27.9002H423.714V26.6472H422.461ZM411.423 26.6472V25.3942H410.17V26.6472H411.423ZM411.423 58.9514V60.2044H412.676V58.9514H411.423ZM404.289 58.9514H403.036V60.2044H404.289V58.9514ZM404.289 26.6472H405.542V25.3942H404.289V26.6472ZM393.252 26.6472H391.999V27.9002H393.252V26.6472ZM393.252 20.4556V19.2026H391.999V20.4556H393.252ZM422.461 20.4556H421.208V26.6472H422.461H423.714V20.4556H422.461ZM422.461 26.6472V25.3942H411.423V26.6472V27.9002H422.461V26.6472ZM411.423 26.6472H410.17V58.9514H411.423H412.676V26.6472H411.423ZM411.423 58.9514V57.6984H404.289V58.9514V60.2044H411.423V58.9514ZM404.289 58.9514H405.542V26.6472H404.289H403.036V58.9514H404.289ZM404.289 26.6472V25.3942H393.252V26.6472V27.9002H404.289V26.6472ZM393.252 26.6472H394.505V20.4556H393.252H391.999V26.6472H393.252ZM393.252 20.4556V21.7086H422.461V20.4556V19.2026H393.252V20.4556ZM434.762 20.4556H436.015V19.2026H434.762V20.4556ZM434.762 58.9514V60.2044H436.015V58.9514H434.762ZM427.628 58.9514H426.375V60.2044H427.628V58.9514ZM427.628 20.4556V19.2026H426.375V20.4556H427.628ZM434.762 20.4556H433.509V58.9514H434.762H436.015V20.4556H434.762ZM434.762 58.9514V57.6984H427.628V58.9514V60.2044H434.762V58.9514ZM427.628 58.9514H428.881V20.4556H427.628H426.375V58.9514H427.628ZM427.628 20.4556V21.7086H434.762V20.4556V19.2026H427.628V20.4556ZM474.657 57.3362L475.1 58.5081L475.91 58.2018V57.3362H474.657ZM474.657 22.0708H475.91V21.2052L475.1 20.8989L474.657 22.0708ZM474.657 28.5316L474.159 29.6817L475.91 30.4386V28.5316H474.657ZM474.657 50.8754H475.91V48.9684L474.159 49.7253L474.657 50.8754ZM474.657 57.3362L474.213 56.1643C471.059 57.3579 467.444 57.9676 463.35 57.9676V59.2206V60.4736C467.691 60.4736 471.614 59.8271 475.1 58.5081L474.657 57.3362ZM463.35 59.2206V57.9676C456.624 57.9676 451.811 56.3401 448.675 53.3062C445.547 50.2798 443.875 45.6464 443.875 39.1651H442.622H441.369C441.369 46.0541 443.151 51.4485 446.932 55.1073C450.706 58.7586 456.258 60.4736 463.35 60.4736V59.2206ZM442.622 39.1651H443.875C443.875 33.0618 445.536 28.7062 448.65 25.8552C451.785 22.985 456.608 21.4394 463.35 21.4394V20.1864V18.9334C456.273 18.9334 450.732 20.5508 446.958 24.0069C443.162 27.4821 441.369 32.6159 441.369 39.1651H442.622ZM463.35 20.1864V21.4394C467.444 21.4394 471.059 22.0491 474.213 23.2427L474.657 22.0708L475.1 20.8989C471.614 19.5799 467.691 18.9334 463.35 18.9334V20.1864ZM474.657 22.0708H473.404V28.5316H474.657H475.91V22.0708H474.657ZM474.657 28.5316L475.154 27.3815C471.666 25.8734 467.907 25.125 463.889 25.125V26.378V27.631C467.588 27.631 471.006 28.3183 474.159 29.6817L474.657 28.5316ZM463.889 26.378V25.125C459.098 25.125 455.272 26.2275 452.641 28.6537C449.991 31.0976 448.772 34.6824 448.772 39.1651H450.025H451.278C451.278 35.1231 452.369 32.3143 454.34 30.4958C456.331 28.6597 459.436 27.631 463.889 27.631V26.378ZM450.025 39.1651H448.772C448.772 43.9795 449.976 47.8205 452.605 50.449C455.233 53.0775 459.074 54.282 463.889 54.282V53.029V51.776C459.46 51.776 456.369 50.6698 454.377 48.677C452.384 46.6842 451.278 43.5933 451.278 39.1651H450.025ZM463.889 53.029V54.282C467.907 54.282 471.666 53.5336 475.154 52.0255L474.657 50.8754L474.159 49.7253C471.006 51.0887 467.588 51.776 463.889 51.776V53.029ZM474.657 50.8754H473.404V57.3362H474.657H475.91V50.8754H474.657ZM481.816 57.3362H480.563V58.246L481.428 58.5277L481.816 57.3362ZM481.816 50.8754L482.253 49.701L480.563 49.0722V50.8754H481.816ZM509.544 22.0708H510.797V21.161L509.932 20.8793L509.544 22.0708ZM509.544 28.5316L509.107 29.706L510.797 30.3348V28.5316H509.544ZM481.816 57.3362H483.069V50.8754H481.816H480.563V57.3362H481.816ZM481.816 50.8754L481.379 52.0497C485.401 53.546 489.913 54.282 494.9 54.282V53.029V51.776C490.159 51.776 485.949 51.0763 482.253 49.701L481.816 50.8754ZM494.9 53.029V54.282C497.952 54.282 500.461 53.7789 502.239 52.59C504.106 51.3414 505.009 49.4441 505.009 47.1065H503.756H502.503C502.503 48.7173 501.931 49.7812 500.846 50.5068C499.671 51.292 497.752 51.776 494.9 51.776V53.029ZM503.756 47.1065H505.009C505.009 45.3899 504.453 43.9062 503.175 42.8939C501.952 41.9257 500.263 41.5463 498.318 41.5463V42.7993V44.0523C499.999 44.0523 501.029 44.3908 501.619 44.8583C502.153 45.2818 502.503 45.9517 502.503 47.1065H503.756ZM498.318 42.7993V41.5463H492.288V42.7993V44.0523H498.318V42.7993ZM492.288 42.7993V41.5463C488.515 41.5463 485.918 40.6842 484.269 39.1811C482.641 37.6981 481.723 35.3959 481.723 32.0312H480.47H479.217C479.217 35.8453 480.269 38.9271 482.581 41.0335C484.871 43.1197 488.183 44.0523 492.288 44.0523V42.7993ZM480.47 32.0312H481.723C481.723 28.4196 482.981 25.8735 485.398 24.1722C487.895 22.4142 491.796 21.4394 497.295 21.4394V20.1864V18.9334C491.578 18.9334 487.067 19.9327 483.955 22.123C480.764 24.37 479.217 27.7463 479.217 32.0312H480.47ZM497.295 20.1864V21.4394C501.479 21.4394 505.43 22.0492 509.156 23.2622L509.544 22.0708L509.932 20.8793C505.941 19.5798 501.726 18.9334 497.295 18.9334V20.1864ZM509.544 22.0708H508.291V28.5316H509.544H510.797V22.0708H509.544ZM509.544 28.5316L509.981 27.3573C505.976 25.8671 501.745 25.125 497.295 25.125V26.378V27.631C501.46 27.631 505.395 28.3246 509.107 29.706L509.544 28.5316ZM497.295 26.378V25.125C493.984 25.125 491.296 25.6006 489.396 26.709C487.392 27.8779 486.351 29.7055 486.351 32.0312H487.604H488.857C488.857 30.5882 489.432 29.5891 490.658 28.8736C491.989 28.0976 494.146 27.631 497.295 27.631V26.378ZM487.604 32.0312H486.351C486.351 33.6884 486.807 35.1537 487.927 36.184C489.028 37.1961 490.559 37.5915 492.288 37.5915V36.3385V35.0855C490.895 35.0855 490.084 34.763 489.623 34.3393C489.182 33.9339 488.857 33.2456 488.857 32.0312H487.604ZM492.288 36.3385V37.5915H498.318V36.3385V35.0855H492.288V36.3385ZM498.318 36.3385V37.5915C502.359 37.5915 505.156 38.4609 506.932 39.9821C508.671 41.4716 509.637 43.7654 509.637 47.1065H510.89H512.143C512.143 43.269 511.014 40.1788 508.562 38.0788C506.148 36.0107 502.659 35.0855 498.318 35.0855V36.3385ZM510.89 47.1065H509.637C509.637 50.8435 508.422 53.4613 506.136 55.1933C503.784 56.9751 500.107 57.9676 494.9 57.9676V59.2206V60.4736C500.352 60.4736 504.671 59.4472 507.649 57.1909C510.693 54.8848 512.143 51.4456 512.143 47.1065H510.89ZM494.9 59.2206V57.9676C490.142 57.9676 485.916 57.3531 482.204 56.1448L481.816 57.3362L481.428 58.5277C485.434 59.8319 489.93 60.4736 494.9 60.4736V59.2206Z" fill="#EA1B40" mask="url(#path-1-outside-1_7318_4533)"/>
<path d="M41.8633 78.2162L6.89258 58.9084V19.357L41.8623 0L76.834 19.357V58.9084L41.8633 78.2162Z" fill="#EA1B40"/>
<path d="M71.5526 54.7579C71.554 55.5035 71.3585 56.2363 70.9859 56.8822C70.6133 57.5281 70.0769 58.0641 69.4307 58.4363L47.083 71.3055C46.9922 71.3593 46.8887 71.3879 46.7832 71.3882C46.6777 71.3885 46.574 71.3606 46.4829 71.3073C46.3918 71.2541 46.3167 71.1774 46.2653 71.0852C46.2138 70.9931 46.188 70.8889 46.1905 70.7834L46.2259 66.2914C46.2277 66.1872 46.2561 66.0852 46.3086 65.9952C46.361 65.9051 46.4357 65.8301 46.5254 65.7771L65.0313 55.1618C65.396 54.9528 65.6992 54.6514 65.9102 54.2878C66.1212 53.9243 66.2326 53.5115 66.2331 53.0911V49.7576C66.2338 49.5533 66.1808 49.3524 66.0795 49.175C65.9781 48.9976 65.832 48.8499 65.6556 48.7468C65.4792 48.6437 65.2789 48.5887 65.0746 48.5873C64.8703 48.5859 64.6692 48.6382 64.4915 48.739L46.9904 58.7003C46.8994 58.7538 46.7957 58.782 46.6901 58.7819C46.5846 58.7818 46.4809 58.7534 46.3901 58.6997C46.2992 58.646 46.2243 58.569 46.1733 58.4766C46.1222 58.3841 46.0969 58.2797 46.0998 58.1742L46.2693 40.3185C46.2698 40.2141 46.298 40.1117 46.3509 40.0217C46.4039 39.9317 46.4797 39.8574 46.5707 39.8062L70.6069 26.078C70.6909 26.0304 70.7859 26.0057 70.8824 26.0064C70.9789 26.007 71.0736 26.0329 71.1569 26.0816C71.2403 26.1302 71.3094 26.1999 71.3574 26.2836C71.4054 26.3674 71.4306 26.4622 71.4305 26.5587V31.8782C71.43 31.9758 71.4038 32.0715 71.3543 32.1556C71.3048 32.2397 71.2338 32.3092 71.1487 32.357L52.2862 42.9191C52.1924 42.9709 52.1145 43.0472 52.0607 43.1398C52.0069 43.2325 51.9793 43.338 51.9808 43.4451L52.0261 49.2985C52.0264 49.3095 52.0295 49.3202 52.0351 49.3296C52.0407 49.339 52.0487 49.3467 52.0583 49.3521C52.0678 49.3575 52.0786 49.3603 52.0895 49.3602C52.1005 49.3601 52.1112 49.3572 52.1207 49.3517L67.037 40.88C67.495 40.6194 68.0133 40.4838 68.5403 40.4865C69.0672 40.4893 69.5841 40.6304 70.0393 40.8957C70.4946 41.1611 70.8721 41.5413 71.1343 41.9984C71.3964 42.4555 71.5338 42.9734 71.5329 43.5003L71.5526 54.7579Z" fill="white"/>
<path d="M60.1216 44.7864C60.1217 44.7756 60.1189 44.7649 60.1133 44.7556C60.1078 44.7463 60.0998 44.7387 60.0903 44.7336C60.0807 44.7286 60.07 44.7262 60.0592 44.7268C60.0484 44.7274 60.0379 44.731 60.029 44.7371L52.9246 48.8745C52.8311 48.9273 52.7255 48.9548 52.6181 48.9543C52.5108 48.9538 52.4054 48.9253 52.3125 48.8715C52.2195 48.8178 52.1422 48.7407 52.0882 48.648C52.0342 48.5552 52.0053 48.4499 52.0045 48.3426L51.9651 43.4309C51.9635 43.3238 51.9911 43.2182 52.0449 43.1256C52.0987 43.0329 52.1767 42.9566 52.2705 42.9049L59.4419 38.8896C59.9561 38.602 60.033 38.1685 60.0743 37.4494L60.0408 34.4607C59.9739 32.2935 60.0921 32.0275 59.2232 32.524L46.5609 39.7939C46.4699 39.8451 46.394 39.9194 46.3411 40.0094C46.2881 40.0994 46.26 40.2018 46.2594 40.3062L46.0998 58.1659C46.0969 58.2714 46.1222 58.3758 46.1733 58.4682C46.2243 58.5606 46.2992 58.6377 46.3901 58.6914C46.4809 58.7451 46.5846 58.7734 46.6901 58.7735C46.7957 58.7736 46.8994 58.7455 46.9904 58.6919L59.8635 51.3668C59.9551 51.3153 60.0313 51.2403 60.0843 51.1496C60.1373 51.0589 60.1651 50.9557 60.165 50.8506C60.1453 49.6251 60.1157 45.4937 60.1216 44.7864Z" fill="#F5E60C"/>
<path d="M33.111 28.6533L32.9845 28.7268L27.5272 31.8988V64.3423V64.5034L27.3948 64.4179L22.2121 61.3971C22.1304 61.3503 22.0625 61.2826 22.0153 61.2009C21.9681 61.1191 21.9433 61.0263 21.9434 60.9317V28.6533L38.5684 18.9922L43.35 21.7764C43.4307 21.8239 43.4977 21.8918 43.5443 21.9734C43.5909 22.0551 43.6154 22.1476 43.6154 22.2417C43.6154 22.3359 43.5909 22.4284 43.5443 22.51C43.4977 22.5916 43.4307 22.6596 43.35 22.7071L38.6948 25.4018L38.5684 25.4773L33.111 28.6533Z" fill="white"/>
<path d="M65.7768 22.9174L61.2805 25.5409L61.1548 25.6124L55.727 28.7757L55.5993 28.8511L50.1715 32.0264L50.0458 32.0998L44.618 35.2632L44.4962 35.3346L39.0704 38.5099V71.0047L38.9426 70.9432L33.8332 67.9664C33.7389 67.9111 33.6605 67.8318 33.606 67.7364C33.5515 67.641 33.5228 67.5328 33.5227 67.4226V35.3029C33.5225 35.2878 33.5264 35.2729 33.534 35.26C33.5417 35.247 33.5527 35.2364 33.566 35.2294L38.9505 32.0899L39.0763 32.0145L44.502 28.8511L44.6278 28.7777L50.0556 25.6143L50.1813 25.5409L55.6111 22.3657L50.1813 19.2003L50.0575 19.1269L44.618 15.9735L44.4962 15.902L39.0704 12.7268L38.9466 12.6553L33.5168 15.8187L33.3911 15.8941L27.9633 19.0574L27.8375 19.1289L16.8543 25.535V57.9186V58.0953L16.7246 57.9921L11.6152 55.0153C11.5208 54.96 11.4425 54.8807 11.388 54.7853C11.3335 54.6899 11.3048 54.5817 11.3047 54.4715V22.3557C11.3049 22.3394 11.3091 22.3234 11.317 22.3092C11.3249 22.295 11.3362 22.283 11.3499 22.2744L16.7324 19.1368L16.8562 19.0634L22.284 15.8981L22.4117 15.8246L27.8375 12.6613L27.9633 12.5878L33.3891 9.42449L38.9446 6.18573L39.0704 6.25915L44.5001 9.43441L44.6219 9.50586L50.0516 12.6811L50.1754 12.7526L55.6052 15.9159L55.7309 15.9913L61.1587 19.1547L61.2845 19.2301L65.7807 21.8497C65.8712 21.9058 65.9459 21.9845 65.9975 22.0782C66.0492 22.1719 66.0761 22.2774 66.0757 22.3846C66.0753 22.4919 66.0476 22.5972 65.9953 22.6905C65.9429 22.7838 65.8677 22.8619 65.7768 22.9174Z" fill="white"/>
</svg>
