<svg width="71" height="79" viewBox="0 0 71 79" fill="none" xmlns="http://www.w3.org/2000/svg">
<path d="M35.8633 78.566L0.892578 59.2582V19.7068L35.8623 0.34977L70.834 19.7068V59.2582L35.8633 78.566Z" fill="#EA1B40"/>
<path d="M65.5526 55.1077C65.554 55.8533 65.3585 56.5861 64.9859 57.232C64.6133 57.8778 64.0769 58.4139 63.4307 58.786L41.083 71.6552C40.9922 71.7091 40.8887 71.7377 40.7832 71.738C40.6777 71.7383 40.574 71.7104 40.4829 71.6571C40.3918 71.6038 40.3167 71.5271 40.2653 71.435C40.2138 71.3429 40.188 71.2386 40.1905 71.1331L40.2259 66.6411C40.2277 66.537 40.2561 66.435 40.3086 66.3449C40.361 66.2549 40.4357 66.1798 40.5254 66.1269L59.0313 55.5116C59.396 55.3026 59.6992 55.0011 59.9102 54.6376C60.1212 54.274 60.2326 53.8613 60.2331 53.4409V50.1074C60.2338 49.9031 60.1808 49.7022 60.0795 49.5248C59.9781 49.3474 59.832 49.1997 59.6556 49.0966C59.4792 48.9934 59.2789 48.9384 59.0746 48.9371C58.8703 48.9357 58.6692 48.988 58.4915 49.0888L40.9904 59.05C40.8994 59.1036 40.7957 59.1317 40.6901 59.1316C40.5846 59.1315 40.4809 59.1032 40.3901 59.0495C40.2992 58.9958 40.2243 58.9187 40.1733 58.8263C40.1222 58.7339 40.0969 58.6295 40.0998 58.524L40.2693 40.6682C40.2698 40.5638 40.298 40.4614 40.3509 40.3715C40.4039 40.2815 40.4797 40.2071 40.5707 40.156L64.6069 26.4278C64.6909 26.3802 64.7859 26.3555 64.8824 26.3561C64.9789 26.3567 65.0736 26.3827 65.1569 26.4313C65.2403 26.48 65.3094 26.5497 65.3574 26.6334C65.4054 26.7171 65.4306 26.812 65.4305 26.9085V32.228C65.43 32.3256 65.4038 32.4213 65.3543 32.5054C65.3048 32.5895 65.2338 32.659 65.1487 32.7067L46.2862 43.2689C46.1924 43.3206 46.1145 43.3969 46.0607 43.4896C46.0069 43.5823 45.9793 43.6878 45.9808 43.7949L46.0261 49.6483C46.0264 49.6593 46.0295 49.67 46.0351 49.6793C46.0407 49.6887 46.0487 49.6965 46.0583 49.7019C46.0678 49.7072 46.0786 49.71 46.0895 49.71C46.1005 49.7099 46.1112 49.707 46.1207 49.7015L61.037 41.2297C61.495 40.9692 62.0133 40.8335 62.5403 40.8363C63.0672 40.8391 63.5841 40.9802 64.0393 41.2455C64.4946 41.5108 64.8721 41.8911 65.1343 42.3482C65.3964 42.8052 65.5338 43.3232 65.5329 43.8501L65.5526 55.1077Z" fill="white"/>
<path d="M54.1216 45.1362C54.1217 45.1253 54.1189 45.1147 54.1133 45.1054C54.1078 45.0961 54.0998 45.0885 54.0903 45.0834C54.0807 45.0783 54.07 45.076 54.0592 45.0766C54.0484 45.0772 54.0379 45.0808 54.029 45.0869L46.9246 49.2243C46.8311 49.2771 46.7255 49.3046 46.6181 49.3041C46.5108 49.3036 46.4054 49.275 46.3125 49.2213C46.2195 49.1676 46.1422 49.0905 46.0882 48.9977C46.0342 48.9049 46.0053 48.7997 46.0045 48.6923L45.9651 43.7807C45.9635 43.6735 45.9911 43.568 46.0449 43.4754C46.0987 43.3827 46.1767 43.3064 46.2705 43.2546L53.4419 39.2394C53.9561 38.9518 54.033 38.5183 54.0743 37.7992L54.0408 34.8104C53.9739 32.6432 54.0921 32.3773 53.2232 32.8738L40.5609 40.1437C40.4699 40.1949 40.394 40.2692 40.3411 40.3592C40.2881 40.4492 40.26 40.5516 40.2594 40.656L40.0998 58.5157C40.0969 58.6212 40.1222 58.7256 40.1733 58.818C40.2243 58.9104 40.2992 58.9875 40.3901 59.0412C40.4809 59.0948 40.5846 59.1232 40.6901 59.1233C40.7957 59.1234 40.8994 59.0952 40.9904 59.0417L53.8635 51.7166C53.9551 51.6651 54.0313 51.5901 54.0843 51.4994C54.1373 51.4086 54.1651 51.3054 54.165 51.2004C54.1453 49.9749 54.1157 45.8434 54.1216 45.1362Z" fill="#F5E60C"/>
<path d="M27.111 29.003L26.9845 29.0766L21.5272 32.2486V64.6921V64.8532L21.3948 64.7676L16.2121 61.7468C16.1304 61.7001 16.0625 61.6324 16.0153 61.5506C15.9681 61.4689 15.9433 61.376 15.9434 61.2815V29.003L32.5684 19.342L37.35 22.1261C37.4307 22.1736 37.4977 22.2416 37.5443 22.3232C37.5909 22.4049 37.6154 22.4974 37.6154 22.5915C37.6154 22.6856 37.5909 22.7781 37.5443 22.8598C37.4977 22.9414 37.4307 23.0094 37.35 23.0568L32.6948 25.7515L32.5684 25.8271L27.111 29.003Z" fill="white"/>
<path d="M59.7768 23.2671L55.2805 25.8907L55.1548 25.9621L49.727 29.1255L49.5993 29.2009L44.1715 32.3762L44.0458 32.4496L38.618 35.6129L38.4962 35.6844L33.0704 38.8596V71.3545L32.9426 71.2929L27.8332 68.3161C27.7389 68.2609 27.6605 68.1816 27.606 68.0862C27.5515 67.9907 27.5228 67.8825 27.5227 67.7724V35.6526C27.5225 35.6375 27.5264 35.6227 27.534 35.6097C27.5417 35.5968 27.5527 35.5862 27.566 35.5792L32.9505 32.4397L33.0763 32.3643L38.502 29.2009L38.6278 29.1275L44.0556 25.9641L44.1813 25.8907L49.6111 22.7154L44.1813 19.5501L44.0575 19.4767L38.618 16.3232L38.4962 16.2518L33.0704 13.0765L32.9466 13.0051L27.5168 16.1684L27.3911 16.2439L21.9633 19.4072L21.8375 19.4787L10.8543 25.8847V58.2684V58.445L10.7246 58.3418L5.61518 55.365C5.52082 55.3098 5.44247 55.2305 5.38798 55.1351C5.33349 55.0396 5.30477 54.9314 5.30469 54.8213V22.7055C5.30486 22.6892 5.3091 22.6732 5.31699 22.659C5.32489 22.6448 5.3362 22.6328 5.34989 22.6241L10.7324 19.4866L10.8562 19.4132L16.284 16.2478L16.4117 16.1744L21.8375 13.011L21.9633 12.9376L27.3891 9.77426L32.9446 6.5355L33.0704 6.60892L38.5001 9.78418L38.6219 9.85563L44.0516 13.0309L44.1754 13.1023L49.6052 16.2657L49.7309 16.3411L55.1587 19.5044L55.2845 19.5799L59.7807 22.1994C59.8712 22.2556 59.9459 22.3343 59.9975 22.428C60.0492 22.5216 60.0761 22.6272 60.0757 22.7344C60.0753 22.8416 60.0476 22.947 59.9953 23.0403C59.9429 23.1336 59.8677 23.2117 59.7768 23.2671Z" fill="white"/>
</svg>
