<svg width="26" height="24" viewBox="0 0 26 24" fill="none" xmlns="http://www.w3.org/2000/svg">
<path d="M7.92398 23.9994C7.25698 23.9994 6.68648 23.7619 6.21248 23.2869C5.73848 22.8119 5.50098 22.2424 5.49998 21.5784V17.9994H2.78798C2.12198 17.9994 1.55198 17.7619 1.07798 17.2869C0.603979 16.8119 0.366479 16.2419 0.365479 15.5769V9.92187C0.365479 9.07187 0.653978 8.35987 1.23098 7.78587C1.80798 7.20987 2.51948 6.92187 3.36548 6.92187H22.6345C23.4845 6.92187 24.197 7.20987 24.772 7.78587C25.347 8.36187 25.6345 9.07387 25.6345 9.92187V15.5769C25.6345 16.2429 25.3975 16.8129 24.9235 17.2869C24.4495 17.7609 23.879 17.9984 23.212 17.9994H20.5V21.5769C20.5 22.2429 20.2625 22.8129 19.7875 23.2869C19.3125 23.7609 18.7425 23.9984 18.0775 23.9994H7.92398ZM20.5 5.76838H5.49998V3.33988C5.49998 2.67288 5.73748 2.10288 6.21248 1.62988C6.68648 1.15788 7.25648 0.921875 7.92248 0.921875H18.0775C18.7435 0.921875 19.3135 1.15938 19.7875 1.63438C20.2625 2.10938 20.5 2.67938 20.5 3.34438V5.76838ZM21.424 12.1734C21.849 12.1734 22.205 12.0294 22.492 11.7414C22.779 11.4534 22.923 11.0974 22.924 10.6734C22.925 10.2494 22.781 9.89287 22.492 9.60387C22.203 9.31487 21.847 9.17087 21.424 9.17187C21.001 9.17287 20.6445 9.31687 20.3545 9.60387C20.0645 9.89087 19.921 10.2474 19.924 10.6734C19.927 11.0994 20.0705 11.4554 20.3545 11.7414C20.6385 12.0274 20.995 12.1714 21.424 12.1734ZM7.92398 22.4994H18.0775C18.3465 22.4994 18.5675 22.4129 18.7405 22.2399C18.9135 22.0669 19 21.8459 19 21.5769V16.6149C19 16.3449 18.9135 16.1239 18.7405 15.9519C18.5675 15.7789 18.3465 15.6924 18.0775 15.6924H7.92248C7.65348 15.6924 7.43248 15.7784 7.25948 15.9504C7.08648 16.1244 6.99998 16.3459 6.99998 16.6149V21.5769C6.99998 21.8459 7.08648 22.0669 7.25948 22.2399C7.43248 22.4129 7.65398 22.4994 7.92398 22.4994Z" fill="black"/>
</svg>
