<svg width="13" height="12" viewBox="0 0 13 12" fill="none" xmlns="http://www.w3.org/2000/svg">
<g clip-path="url(#clip0_771_1578)">
<path d="M1.33472 1.55664C1.33472 1.32095 1.42834 1.09491 1.595 0.928255C1.76166 0.761596 1.9877 0.667969 2.22339 0.667969H9.71223L11.9988 2.80285V10.4434C11.9988 10.6791 11.9052 10.9051 11.7385 11.0717C11.5718 11.2384 11.3458 11.332 11.1101 11.332H2.22339C1.9877 11.332 1.76166 11.2384 1.595 11.0717C1.42834 10.9051 1.33472 10.6791 1.33472 10.4434V1.55664Z" stroke="#71717A" stroke-linejoin="round"/>
<path d="M6.6692 0.667969L6.66683 2.85558C6.66683 2.9563 6.53412 3.03776 6.37061 3.03776H4.00081C3.8373 3.03776 3.70459 2.9563 3.70459 2.85558V0.667969H6.6692Z" stroke="#71717A" stroke-linejoin="round"/>
<path d="M2.22339 0.667969H9.71223M3.70451 6.59245H9.62899M3.70451 8.96224H6.66912" stroke="#71717A" stroke-linecap="round" stroke-linejoin="round"/>
</g>
<defs>
<clipPath id="clip0_771_1578">
<rect width="12" height="12" fill="white" transform="translate(0.666748)"/>
</clipPath>
</defs>
</svg>
