<svg width="17" height="16" viewBox="0 0 17 16" fill="none" xmlns="http://www.w3.org/2000/svg">
<g clip-path="url(#clip0_6753_1123)">
<path d="M7.77428 8.72287C7.64687 8.59569 7.49503 8.49563 7.3279 8.42872L2.04123 6.30872C1.97811 6.28339 1.92425 6.23936 1.88687 6.18254C1.8495 6.12571 1.8304 6.05882 1.83214 5.99083C1.83388 5.92283 1.85638 5.857 1.89662 5.80217C1.93685 5.74733 1.9929 5.70612 2.05723 5.68405L14.7239 1.35072C14.783 1.32938 14.8469 1.32531 14.9082 1.33898C14.9695 1.35265 15.0256 1.38349 15.07 1.4279C15.1145 1.47232 15.1453 1.52846 15.159 1.58976C15.1726 1.65106 15.1686 1.71498 15.1472 1.77405L10.8139 14.4407C10.7918 14.5051 10.7506 14.5611 10.6958 14.6013C10.641 14.6416 10.5751 14.6641 10.5071 14.6658C10.4391 14.6676 10.3722 14.6485 10.3154 14.6111C10.2586 14.5737 10.2146 14.5198 10.1892 14.4567L8.06924 9.16872C8.00202 9.00172 7.90169 8.85005 7.77428 8.72287ZM7.77428 8.72287L15.0679 1.43072" stroke="white" stroke-width="1.33333" stroke-linecap="round" stroke-linejoin="round"/>
</g>
<defs>
<clipPath id="clip0_6753_1123">
<rect width="16" height="16" fill="white" transform="translate(0.5)"/>
</clipPath>
</defs>
</svg>
