<svg width="3" height="11" viewBox="0 0 3 11" fill="none" xmlns="http://www.w3.org/2000/svg">
<path d="M1.5415 8.91667C1.77357 8.91667 1.99613 9.00885 2.16022 9.17295C2.32432 9.33704 2.4165 9.5596 2.4165 9.79167C2.4165 10.0237 2.32432 10.2463 2.16022 10.4104C1.99613 10.5745 1.77357 10.6667 1.5415 10.6667C1.30944 10.6667 1.08688 10.5745 0.922785 10.4104C0.758691 10.2463 0.666504 10.0237 0.666504 9.79167C0.666504 9.5596 0.758691 9.33704 0.922785 9.17295C1.08688 9.00885 1.30944 8.91667 1.5415 8.91667ZM1.5415 4.83333C1.77357 4.83333 1.99613 4.92552 2.16022 5.08961C2.32432 5.25371 2.4165 5.47627 2.4165 5.70833C2.4165 5.9404 2.32432 6.16296 2.16022 6.32705C1.99613 6.49115 1.77357 6.58333 1.5415 6.58333C1.30944 6.58333 1.08688 6.49115 0.922785 6.32705C0.758691 6.16296 0.666504 5.9404 0.666504 5.70833C0.666504 5.47627 0.758691 5.25371 0.922785 5.08961C1.08688 4.92552 1.30944 4.83333 1.5415 4.83333ZM1.5415 0.75C1.77357 0.75 1.99613 0.842187 2.16022 1.00628C2.32432 1.17038 2.4165 1.39294 2.4165 1.625C2.4165 1.85706 2.32432 2.07962 2.16022 2.24372C1.99613 2.40781 1.77357 2.5 1.5415 2.5C1.30944 2.5 1.08688 2.40781 0.922785 2.24372C0.758691 2.07962 0.666504 1.85706 0.666504 1.625C0.666504 1.39294 0.758691 1.17038 0.922785 1.00628C1.08688 0.842187 1.30944 0.75 1.5415 0.75Z" fill="#71717A"/>
</svg>
