<svg width="16" height="16" viewBox="0 0 16 16" fill="none" xmlns="http://www.w3.org/2000/svg">
<path d="M5.33307 3.73333C5.33307 3.02609 5.61402 2.34781 6.11412 1.84772C6.61422 1.34762 7.2925 1.06667 7.99974 1.06667C8.70698 1.06667 9.38526 1.34762 9.88536 1.84772C10.3855 2.34781 10.6664 3.02609 10.6664 3.73333V4.26667H11.7331V3.73333C11.7331 2.74319 11.3397 1.7936 10.6396 1.09347C9.93947 0.393332 8.98988 0 7.99974 0C7.0096 0 6.06001 0.393332 5.35987 1.09347C4.65974 1.7936 4.26641 2.74319 4.26641 3.73333V6.4H2.66641C2.24206 6.4 1.83509 6.56857 1.53504 6.86863C1.23498 7.16869 1.06641 7.57565 1.06641 8V14.4C1.06641 14.8243 1.23498 15.2313 1.53504 15.5314C1.83509 15.8314 2.24206 16 2.66641 16H13.3331C13.7574 16 14.1644 15.8314 14.4644 15.5314C14.7645 15.2313 14.9331 14.8243 14.9331 14.4V8C14.9331 7.57565 14.7645 7.16869 14.4644 6.86863C14.1644 6.56857 13.7574 6.4 13.3331 6.4H5.33307V3.73333Z" fill="#EA1B40"/>
</svg>
