<svg width="16" height="16" viewBox="0 0 16 16" fill="none" xmlns="http://www.w3.org/2000/svg">
<g clip-path="url(#clip0_771_4193)">
<path fill-rule="evenodd" clip-rule="evenodd" d="M1.2638 7.74952C1.2638 11.5148 3.94057 14.0802 6.94724 14.6109C7.02903 14.6254 7.10722 14.6561 7.17736 14.7014C7.2475 14.7467 7.3082 14.8056 7.35601 14.8748C7.40382 14.944 7.4378 15.0221 7.456 15.1047C7.4742 15.1873 7.47627 15.2728 7.4621 15.3562C7.44792 15.4396 7.41778 15.5193 7.37338 15.5909C7.32899 15.6624 7.27121 15.7243 7.20336 15.7731C7.1355 15.8218 7.05889 15.8565 6.9779 15.875C6.89692 15.8936 6.81314 15.8957 6.73135 15.8813C3.20073 15.2578 0 12.2223 0 7.74952C0 5.84832 0.847786 4.35408 1.83748 3.21855C2.547 2.40464 3.3584 1.74287 4.01092 1.23695H2.02668C1.86585 1.23695 1.7116 1.17179 1.59787 1.05581C1.48415 0.939819 1.42025 0.782507 1.42025 0.618477C1.42025 0.454447 1.48415 0.297135 1.59787 0.181148C1.7116 0.0651609 1.86585 0 2.02668 0H5.66525C5.82609 0 5.98033 0.0651609 6.09406 0.181148C6.20779 0.297135 6.27168 0.454447 6.27168 0.618477V4.32934C6.27168 4.49337 6.20779 4.65068 6.09406 4.76667C5.98033 4.88266 5.82609 4.94782 5.66525 4.94782C5.50442 4.94782 5.35017 4.88266 5.23644 4.76667C5.12271 4.65068 5.05882 4.49337 5.05882 4.32934V2.04592L5.05761 2.0484C4.36386 2.58029 3.51728 3.23216 2.7835 4.07453C1.91631 5.06904 1.2638 6.27259 1.2638 7.74952ZM14.7362 8.25048C14.7362 4.52478 12.1164 1.97542 9.14857 1.40642C9.06586 1.3921 8.98676 1.36113 8.9159 1.31531C8.84505 1.26949 8.78385 1.20974 8.73587 1.13954C8.6879 1.06934 8.65411 0.990098 8.63649 0.90644C8.61886 0.822782 8.61774 0.736382 8.63321 0.652279C8.64867 0.568177 8.6804 0.488058 8.72654 0.416595C8.77269 0.345132 8.83232 0.283756 8.90198 0.236049C8.97163 0.188343 9.0499 0.155259 9.13222 0.13873C9.21454 0.122201 9.29926 0.122556 9.38144 0.139776C12.8672 0.807731 16 3.8259 16 8.25048C16 10.1517 15.1522 11.6447 14.1625 12.7814C13.453 13.5954 12.6416 14.2571 11.9891 14.763H13.9733C14.1342 14.763 14.2884 14.8282 14.4021 14.9442C14.5159 15.0602 14.5797 15.2175 14.5797 15.3815C14.5797 15.5456 14.5159 15.7029 14.4021 15.8189C14.2884 15.9348 14.1342 16 13.9733 16H10.3347C10.1739 16 10.0197 15.9348 9.90594 15.8189C9.79221 15.7029 9.72832 15.5456 9.72832 15.3815V11.6707C9.72832 11.5066 9.79221 11.3493 9.90594 11.2333C10.0197 11.1173 10.1739 11.0522 10.3347 11.0522C10.4956 11.0522 10.6498 11.1173 10.7636 11.2333C10.8773 11.3493 10.9412 11.5066 10.9412 11.6707V13.9528H10.9436C11.6361 13.4185 12.4839 12.7678 13.2165 11.9242C14.0837 10.931 14.7362 9.72864 14.7362 8.25048Z" fill="#EA1B40"/>
</g>
<defs>
<clipPath id="clip0_771_4193">
<rect width="16" height="16" fill="white"/>
</clipPath>
</defs>
</svg>
